<svg width="1244" height="473" viewBox="0 0 1244 473" fill="none" xmlns="http://www.w3.org/2000/svg">
<path d="M17.5159 473C-0.124146 438.953 -17.7641 404.906 40.9519 380.85C99.6679 356.891 234.488 342.923 291.692 321.195C348.896 299.467 328.484 269.882 328.232 237.484C328.232 205.086 348.644 169.875 395.768 146.498C443.144 123.218 517.232 111.772 584.516 93.148C651.8 74.524 712.28 48.625 789.896 50.953C867.512 53.184 962.264 83.739 1040.89 80.053C1119.51 76.464 1181.76 38.634 1244 0.901001V473H17.5159Z" fill="#D1A7FF"/>
<path d="M630.632 473C621.812 455.928 613.244 438.953 642.476 426.925C671.708 414.897 739.244 408.01 767.972 397.049C796.448 386.185 786.116 371.441 786.116 355.242C786.116 339.043 796.196 321.389 819.884 309.749C843.572 298.109 880.616 292.386 914.384 283.074C947.9 273.762 978.14 260.764 1016.95 261.928C1055.76 263.092 1103.13 278.321 1142.44 276.575C1181.76 274.732 1213 255.817 1244 236.902V473H630.632Z" fill="#944DFF" fill-opacity="0.5"/>
</svg>
