<svg width="808" height="1359" viewBox="0 0 808 1359" fill="none" xmlns="http://www.w3.org/2000/svg">
<path d="M808 886C732.131 907.825 656.261 929.65 659.416 962.63C662.57 995.61 744.582 1039.74 733.127 1063.41C721.672 1087.08 616.583 1090.38 570.099 1108.61C523.615 1126.75 535.9 1159.83 529.425 1195.33C522.95 1230.83 497.55 1268.76 448.907 1278.56C400.431 1288.36 328.712 1270.12 277.579 1277.59C226.612 1285.06 196.065 1318.33 153.233 1335.98C110.401 1353.73 55.1173 1355.96 0 1358.1V886H808Z" fill="#D1A7FF"/>
<path d="M404.083 886C366.065 896.961 328.214 907.825 329.708 924.315C331.202 940.805 372.374 962.824 366.563 974.755C360.753 986.589 308.292 988.238 285.05 997.259C261.807 1006.38 267.95 1022.96 264.796 1040.71C261.475 1058.47 248.692 1077.38 224.454 1082.33C200.215 1087.18 164.356 1078.06 138.789 1081.84C113.223 1085.53 97.9495 1102.12 76.5334 1111.04C55.1173 1119.87 27.5587 1120.93 0 1122.1V886H404.083Z" fill="#944DFF" fill-opacity="0.5"/>
<path d="M0 12.0899C58.2716 -0.486768 116.543 -13.0634 157.715 28.7989C198.721 70.6613 222.627 166.783 259.815 207.567C297.003 248.352 347.638 233.799 403.087 233.619C458.536 233.619 518.8 248.172 558.81 281.77C598.654 315.547 618.244 368.369 650.119 416.34C681.994 464.311 726.32 507.431 722.336 562.768C718.517 618.106 666.222 685.66 672.531 741.716C678.674 797.772 743.42 842.15 808 886.528H0V12.0899Z" fill="#D1A7FF"/>
<path d="M0 449.219C29.2188 442.931 58.2716 436.822 78.8576 457.663C99.4436 478.505 111.231 526.655 129.991 547.137C148.584 567.44 173.819 560.073 201.543 560.073C229.268 560.073 259.483 567.26 279.405 584.149C299.327 601.037 309.122 627.448 325.059 651.524C340.997 675.419 363.243 696.979 361.251 724.648C359.259 752.317 333.194 786.094 336.182 814.122C339.337 842.15 371.71 864.429 404.083 886.528H0V449.219Z" fill="#944DFF" fill-opacity="0.5"/>
</svg>
