<svg width="655" height="855" viewBox="0 0 655 855" fill="none" xmlns="http://www.w3.org/2000/svg">
<path d="M655 854.914C624.72 814.818 594.439 774.721 548.682 776.388C502.925 778.055 441.691 821.398 408.854 815.344C376.016 809.29 371.44 753.751 346.139 729.184C320.973 704.617 275.081 711.109 225.825 707.687C176.569 704.266 123.948 690.841 110.355 665.134C96.7629 639.514 122.064 601.61 111.701 574.587C101.339 547.65 55.1778 531.506 30.6842 508.87C6.05612 486.233 2.96076 457.016 0 427.886H655V854.914Z" fill="#D1A7FF"/>
<path d="M655 596.941C636.43 581.036 618.024 565.2 590.086 565.825C562.149 566.45 524.844 583.675 504.63 581.244C484.581 578.813 481.787 556.865 466.504 547.141C451.056 537.418 422.954 539.987 392.88 538.668C362.806 537.279 330.76 531.931 322.379 521.79C314.162 511.649 329.61 496.647 323.201 485.951C316.956 475.255 288.854 468.865 273.735 459.905C258.78 450.945 256.972 439.416 255 427.886H655V596.941Z" fill="#944DFF" fill-opacity="0.5"/>
<path d="M655 0.857483C624.72 40.9545 594.439 81.0515 548.682 79.3844C502.925 77.7173 441.691 34.374 408.854 40.428C376.016 46.4821 371.44 102.021 346.139 126.588C320.973 151.155 275.081 144.663 225.825 148.085C176.569 151.506 123.948 164.93 110.355 190.638C96.7629 216.258 122.064 254.162 111.701 281.185C101.339 308.121 55.1778 324.266 30.6842 346.902C6.05612 369.539 2.96076 398.756 0 427.886H655V0.857483Z" fill="#D1A7FF"/>
<path d="M655 258.831C636.43 274.736 618.024 290.572 590.086 289.947C562.149 289.322 524.844 272.097 504.63 274.528C484.581 276.959 481.787 298.907 466.504 308.631C451.056 318.354 422.954 315.785 392.88 317.104C362.806 318.493 330.76 323.841 322.379 333.982C314.162 344.122 329.61 359.125 323.201 369.821C316.956 380.517 288.854 386.907 273.735 395.867C258.78 404.827 256.972 416.356 255 427.886H655V258.831Z" fill="#944DFF" fill-opacity="0.5"/>
</svg>
