<svg width="655" height="268" viewBox="0 0 655 268" fill="none" xmlns="http://www.w3.org/2000/svg">
<path d="M391.282 264.346C363.064 268.148 334.845 271.95 314.907 259.295C295.05 246.639 283.473 217.582 265.464 205.252C247.456 192.923 222.935 197.322 196.083 197.377C169.231 197.377 140.048 192.977 120.673 182.821C101.378 172.61 91.8915 156.641 76.4556 142.14C61.0198 127.638 39.5543 114.603 41.4838 97.874C43.3329 81.1453 68.6573 60.7233 65.6023 43.7775C62.6277 26.8315 31.2737 13.416 0 0.000549316H391.282V264.346Z" fill="#D1A7FF"/>
<path d="M391 147.98C380.371 150.108 369.801 152.175 362.313 145.122C354.824 138.07 350.536 121.776 343.711 114.845C336.947 107.975 327.767 110.468 317.681 110.468C307.595 110.468 296.603 108.036 289.356 102.321C282.109 96.6063 278.546 87.6691 272.748 79.5224C266.95 71.4364 258.857 64.1407 259.582 54.778C260.306 45.4153 269.788 33.9855 268.701 24.5012C267.554 15.0169 255.777 7.47804 244 3.05176e-05H391V147.98Z" fill="#944DFF" fill-opacity="0.5"/>
<path d="M651.4 0C655.145 19.0392 658.89 38.0785 646.424 51.5307C633.958 64.9287 605.333 72.7397 593.188 84.8901C581.043 97.0405 585.377 113.585 585.43 131.702C585.43 149.819 581.097 169.509 571.091 182.581C561.033 195.6 545.303 202 531.018 212.415C516.732 222.83 503.891 237.313 487.413 236.011C470.934 234.763 450.816 217.677 434.123 219.738C417.43 221.745 404.215 242.9 391 264L391 3.05176e-05L651.4 0Z" fill="#D1A7FF"/>
<path d="M547.858 0C550.114 10.6294 552.305 21.1984 544.829 28.6873C537.354 36.1763 520.083 40.4643 512.736 47.2888C505.454 54.053 508.096 63.2329 508.096 73.3188C508.096 83.4047 505.518 94.3965 499.46 101.644C493.403 108.891 483.929 112.454 475.294 118.252C466.722 124.05 458.989 132.143 449.065 131.418C439.14 130.694 427.024 121.212 416.971 122.299C406.918 123.446 398.927 135.223 391 147L391 3.05176e-05L547.858 0Z" fill="#944DFF" fill-opacity="0.5"/>
</svg>
