<?xml version="1.0" standalone="no"?>
<!DOCTYPE svg PUBLIC "-//W3C//DTD SVG 20010904//EN"
 "http://www.w3.org/TR/2001/REC-SVG-20010904/DTD/svg10.dtd">
<svg version="1.0" xmlns="http://www.w3.org/2000/svg"
 width="500.000000pt" height="500.000000pt" viewBox="0 0 500.000000 500.000000"
 preserveAspectRatio="xMidYMid meet">
<metadata>
Created by potrace 1.14, written by Peter Selinger 2001-2017
</metadata>
<g transform="translate(0.000000,500.000000) scale(0.100000,-0.100000)"
fill="#000000" stroke="none">
<path d="M2562 4282 c-36 -5 -48 -46 -46 -161 2 -116 10 -132 65 -135 l34 -2
1 -329 c1 -182 2 -333 3 -336 3 -17 64 -27 144 -25 49 1 91 -3 94 -8 4 -5 7
-72 7 -148 1 -117 -1 -138 -14 -137 -8 1 -17 0 -20 -1 -14 -6 -80 -5 -80 2 0
3 -13 3 -30 -2 -19 -5 -30 -5 -30 1 0 6 -5 7 -12 3 -22 -14 -69 -4 -102 21
-18 14 -38 25 -44 25 -15 0 -13 -32 -15 302 -2 210 -5 290 -14 299 -19 19
-161 13 -242 -11 -16 -4 -32 -6 -35 -2 -3 3 -6 -1 -6 -8 0 -7 -3 -11 -6 -7
-12 11 -161 -53 -227 -97 -21 -14 -40 -26 -43 -26 -8 0 -30 -20 -112 -100
-100 -97 -199 -251 -227 -352 -2 -5 -3 -9 -5 -10 -1 -2 -3 -10 -5 -18 -1 -8
-8 -35 -15 -60 -48 -175 -19 -428 67 -592 8 -16 11 -28 8 -28 -4 0 28 -66 69
-147 42 -80 73 -149 70 -152 -7 -8 -374 -8 -374 0 0 3 21 17 48 31 132 70 162
95 162 137 -1 56 -48 86 -100 65 -19 -9 -36 -14 -36 -12 -1 2 -10 -4 -20 -13
-11 -9 -66 -42 -124 -75 -58 -32 -107 -61 -110 -64 -3 -3 -22 -14 -43 -25 -34
-18 -69 -61 -66 -82 2 -17 34 -63 44 -64 54 -5 65 -5 65 1 0 5 11 11 24 14 14
3 32 13 40 22 9 8 20 13 24 10 5 -3 34 -44 66 -91 57 -85 58 -86 40 -108 -11
-12 -23 -25 -27 -28 -5 -3 -9 -10 -9 -15 0 -5 -16 -31 -36 -59 -45 -62 -63
-94 -54 -98 4 -1 157 -2 340 -2 301 1 360 -2 318 -18 -15 -6 -16 -34 -1 -59 6
-9 26 -18 45 -20 35 -3 36 -5 31 -49 -1 -8 -5 -8 -15 0 -10 8 -16 9 -21 1 -3
-6 -10 -8 -15 -5 -4 3 -11 -3 -15 -13 -22 -49 -12 -71 36 -81 26 -5 34 -12 35
-29 1 -16 -4 -22 -21 -22 -26 0 -55 -29 -52 -52 3 -18 25 -48 35 -46 27 3 39
-4 38 -25 0 -12 -5 -22 -11 -22 -58 -2 -67 -91 -10 -99 14 -2 20 -12 22 -31 4
-49 52 -132 96 -167 23 -18 45 -37 49 -43 4 -5 8 -7 8 -2 0 20 75 -34 108 -78
72 -96 194 -130 203 -57 2 15 4 227 3 472 l0 446 235 -1 c130 -1 243 -2 251
-3 13 -2 15 -28 12 -181 l-3 -180 -29 1 c-20 1 -32 7 -36 20 -3 11 -23 32 -45
48 -34 24 -48 28 -93 26 -46 -2 -59 -8 -90 -37 -82 -77 -58 -201 45 -243 31
-12 73 -13 107 -1 7 2 14 5 17 5 7 1 49 46 60 65 8 13 26 18 78 19 36 1 70 6
74 10 5 4 9 106 11 227 2 120 6 220 10 220 4 1 80 3 169 4 173 2 176 2 167
-48 -2 -15 3 -34 14 -46 16 -21 26 -22 160 -23 78 0 142 -3 142 -7 0 -3 -7
-14 -15 -24 -21 -28 1 -70 37 -73 10 -1 39 17 64 41 l47 42 31 -33 c45 -47 78
-58 105 -33 25 24 20 42 -30 94 l-39 41 34 36 c51 54 58 71 40 96 -23 34 -59
27 -103 -18 l-38 -40 -46 40 c-25 22 -52 40 -60 40 -13 0 -89 99 -103 134 -4
9 16 46 50 96 31 45 56 84 56 87 0 2 7 11 15 19 8 9 15 19 15 22 0 4 -91 7
-202 7 -112 -1 -208 2 -213 6 -6 4 -10 48 -9 98 1 106 -5 115 -77 117 -26 1
-52 5 -58 8 -6 4 -11 4 -11 -1 0 -4 -58 -8 -130 -8 -71 0 -130 4 -130 8 0 5
-6 5 -12 1 -17 -11 -108 -11 -108 -1 0 5 -6 5 -12 1 -7 -5 -68 -7 -137 -6
-107 1 -127 4 -145 21 -12 11 -30 21 -41 23 -11 1 -23 10 -26 18 -7 16 7 40
23 40 5 0 24 10 41 23 l32 23 474 0 c424 -1 477 1 495 15 20 16 21 26 20 173
l-1 156 41 1 c23 0 60 1 83 1 70 0 75 12 75 190 l0 154 46 -1 c37 0 46 -4 48
-20 11 -75 24 -81 162 -79 139 2 138 1 137 146 0 63 -6 122 -12 133 -10 17
-23 19 -132 19 -135 1 -149 -5 -152 -64 l-3 -35 -84 0 c-110 -1 -112 -4 -111
-144 0 -58 0 -127 0 -153 l-1 -47 -82 0 c-115 0 -114 1 -113 -185 0 -91 -3
-150 -10 -155 -5 -4 -206 -7 -445 -7 -434 1 -435 1 -467 24 -17 12 -36 22 -42
22 -14 0 -31 34 -23 46 4 5 16 11 27 12 11 2 28 12 38 23 10 10 28 19 40 20
12 0 141 2 287 3 302 3 293 3 285 16 -3 6 -2 10 3 10 5 0 8 159 8 375 -1 407
-4 387 54 389 14 1 35 -2 46 -6 12 -4 24 -4 28 -1 3 3 37 6 76 7 54 1 75 5 84
17 8 12 11 61 11 152 l-1 135 34 17 c19 9 32 19 28 22 -3 3 1 11 9 17 8 6 17
29 21 51 3 22 6 42 7 45 3 12 -22 67 -39 85 -81 87 -232 46 -251 -67 -1 -10
-4 -21 -5 -25 -4 -17 13 -83 22 -83 6 0 10 -6 10 -13 0 -7 14 -21 30 -30 35
-21 32 -10 34 -125 2 -109 14 -102 -152 -100 -100 1 -114 -1 -127 -18 -12 -16
-14 -82 -15 -396 l0 -376 -252 0 c-252 0 -253 0 -277 24 -13 13 -27 21 -31 19
-13 -8 -40 24 -34 39 3 8 15 17 27 20 13 3 33 15 45 26 17 16 34 21 70 20 143
-5 269 1 286 13 17 12 19 33 20 213 2 208 -4 251 -35 263 -11 3 -62 6 -114 5
-65 -1 -95 2 -96 10 -4 36 -3 576 1 577 3 0 17 2 32 3 55 4 63 24 61 143 0 59
-2 113 -2 120 -2 24 -47 37 -136 37 -49 1 -100 0 -113 -2z m149 -114 c4 -7 4
-48 0 -79 -2 -11 -91 -7 -92 5 -8 70 -4 81 26 86 32 6 56 2 66 -12z m786 -260
c16 -20 -2 -56 -32 -64 -51 -13 -79 43 -38 76 26 20 47 17 70 -12z m-1080
-530 c-2 -111 -5 -133 -17 -133 -36 -1 -56 -29 -57 -80 -1 -27 -2 -53 -2 -57
-2 -20 -50 -5 -78 25 -47 50 -65 46 -144 -34 -38 -39 -69 -78 -69 -88 0 -10
18 -36 40 -58 36 -35 39 -41 26 -58 -10 -14 -27 -19 -62 -21 -27 0 -52 -2 -56
-3 -14 -3 -26 -69 -24 -138 1 -91 14 -106 88 -107 46 -1 53 -4 56 -22 2 -12
-11 -35 -33 -59 -19 -21 -35 -46 -35 -55 0 -19 130 -154 152 -158 8 -1 36 16
61 38 38 34 50 39 65 31 15 -8 18 -19 15 -54 -4 -48 17 -86 52 -91 19 -3 20
-11 21 -112 l1 -109 -218 0 -219 0 -44 76 c-24 42 -49 90 -57 108 -8 17 -18
31 -22 31 -5 0 -5 5 -2 10 3 6 1 10 -4 10 -6 0 -11 5 -11 10 0 6 -11 33 -25
62 -14 28 -25 58 -25 65 0 7 -5 13 -12 13 -6 0 -8 3 -5 6 3 4 1 16 -4 27 -14
25 -48 141 -55 187 -37 237 48 486 224 657 53 52 150 123 169 123 7 0 13 5 13
10 0 6 9 10 20 10 11 0 20 5 20 11 0 5 4 8 8 5 5 -3 20 1 35 9 24 12 46 19
106 30 13 2 26 7 29 10 3 3 22 5 43 5 l38 0 -2 -132z m1674 -187 c7 -1 6 -91
-1 -92 -30 -6 -90 -2 -91 6 -10 74 -1 91 48 89 21 -1 41 -3 44 -3z m-1798
-205 c15 -2 27 -1 27 3 0 5 8 11 18 14 9 3 31 10 49 15 l32 10 0 -54 c-1 -30
-5 -52 -9 -49 -4 3 -13 -2 -20 -10 -7 -8 -18 -15 -24 -15 -6 0 -18 -10 -26
-21 -8 -12 -20 -27 -26 -33 -22 -23 -31 -90 -19 -139 14 -53 42 -89 90 -111
28 -14 32 -20 33 -60 2 -52 -6 -60 -45 -44 -15 6 -31 12 -35 13 -5 2 -9 3 -10
5 -2 1 -15 4 -29 6 -19 3 -34 -4 -58 -26 -28 -27 -34 -29 -50 -18 -18 13 -17
16 19 57 l38 43 -19 36 c-10 21 -25 54 -33 75 -11 27 -21 37 -38 38 -21 1 -42
3 -75 7 -7 1 -11 12 -9 25 2 17 10 22 37 24 19 0 42 2 51 2 19 1 52 56 43 71
-3 6 -2 10 3 10 12 0 25 38 24 69 -1 14 -13 36 -27 48 -29 28 -31 36 -10 57
14 14 18 12 43 -14 16 -16 40 -31 55 -34z m125 -237 c1 -43 -1 -49 -14 -39
-15 13 -18 47 -8 74 12 31 22 15 22 -35z m887 -654 l0 -60 -360 0 c-367 0
-403 3 -427 39 -8 13 20 46 39 46 7 0 13 5 13 10 0 6 7 10 15 10 8 0 15 4 15
9 0 4 159 8 353 7 l352 -1 0 -60z m-1093 -119 c13 -22 -7 -47 -35 -42 -27 4
-39 37 -19 52 21 15 42 11 54 -10z m-552 -16 c3 -1 8 -2 11 -2 4 1 15 -8 25
-19 18 -20 27 -70 18 -101 -6 -20 -63 -48 -98 -48 -27 0 -28 -3 -30 -55 -1
-26 -5 -30 -32 -33 l-32 -3 0 128 c0 70 2 130 4 133 2 6 123 5 134 0z m809 -9
c16 -12 31 -32 33 -45 5 -23 -23 -103 -40 -116 -4 -3 -12 -12 -19 -21 -11 -13
-7 -15 30 -15 38 1 42 -1 42 -24 0 -25 -1 -25 -93 -28 -78 -2 -92 0 -92 13 0
13 67 97 93 116 4 3 10 22 14 42 7 43 -13 57 -54 38 -21 -10 -27 -9 -38 6 -31
42 73 70 124 34z m237 -85 c1 -108 5 -116 60 -110 24 2 36 -2 43 -15 18 -33
-1 -42 -85 -39 l-79 3 -1 125 c0 69 1 128 3 131 1 3 15 5 30 4 l28 -1 1 -98z
m-891 23 c6 -17 7 -17 26 2 27 27 60 26 55 -3 -3 -13 -5 -25 -5 -28 -1 -3 -11
-6 -23 -7 -30 -3 -42 -29 -43 -93 0 -54 -1 -55 -30 -58 l-31 -3 0 103 c0 100
1 103 23 104 14 1 25 -5 28 -17z m260 -9 c47 -45 41 -132 -12 -167 -31 -20
-98 -12 -124 16 -11 12 -17 21 -13 21 3 0 1 6 -5 14 -12 14 -10 66 4 98 9 22
62 47 96 44 16 -1 40 -13 54 -26z m139 -79 c-2 -125 -10 -158 -37 -167 -33
-11 -48 -13 -62 -8 -23 9 -8 49 18 49 8 0 13 32 14 100 1 55 2 105 3 112 0 14
30 22 50 12 12 -6 15 -26 14 -98z m756 98 c0 -7 3 -9 7 -6 10 11 31 -25 38
-66 8 -40 10 -39 -60 -41 -38 -1 -45 -5 -45 -25 0 -13 45 -19 64 -9 11 6 18 3
26 -11 8 -16 7 -22 -9 -31 -53 -28 -135 2 -148 54 -12 54 -8 79 21 113 18 21
34 29 65 31 27 2 41 -2 41 -9z m219 -7 c23 -18 39 -96 33 -159 -3 -27 -8 -33
-27 -33 -13 0 -27 5 -31 11 -4 8 -9 8 -17 0 -15 -15 -60 -14 -79 2 -43 34 -16
98 50 114 17 4 31 13 30 18 -3 11 -34 12 -58 1 -9 -4 -20 2 -28 14 -11 19 -10
22 20 35 45 19 82 18 107 -3z m168 5 c30 20 52 11 46 -19 -3 -15 -12 -24 -25
-25 -38 -3 -48 -22 -48 -89 l0 -64 -30 0 c-17 0 -30 5 -31 13 0 6 0 50 0 97 2
90 12 109 46 86 17 -11 23 -11 42 1z m133 -11 c0 -6 5 -4 10 4 5 8 10 11 10 6
0 -5 7 -3 15 4 8 7 26 9 44 5 38 -8 54 -53 49 -140 -3 -59 -4 -60 -33 -63
l-31 -3 1 67 c1 47 -3 71 -14 81 -26 26 -46 -12 -46 -85 l1 -62 -32 0 -31 0 2
103 c1 56 3 103 4 103 7 6 51 -11 51 -20z m273 -305 c4 0 7 -5 7 -9 0 -4 -46
-7 -102 -6 -130 3 -126 3 -109 13 11 7 162 9 204 2z m-1345 -87 c2 -25 -10
-32 -50 -30 -16 1 -28 -1 -28 -4 0 -3 -31 -6 -69 -6 -49 -1 -71 3 -75 12 -9
23 18 33 104 40 47 3 86 7 88 8 11 10 28 -1 30 -20z m0 -146 c5 -28 -6 -31
-155 -42 -61 -5 -63 -4 -63 19 0 14 6 25 13 26 6 1 40 2 75 4 35 2 66 5 68 8
11 11 59 -1 62 -15z m-3 -139 c15 -23 -5 -46 -40 -44 -19 0 -35 -2 -35 -6 0
-4 -16 -3 -35 1 -19 4 -35 5 -35 1 0 -4 -15 -7 -34 -7 -28 0 -35 5 -39 23 -2
13 -4 23 -3 24 0 0 39 3 86 6 47 3 86 6 87 7 8 6 44 3 48 -5z m434 -10 c21
-23 18 -48 -8 -64 -49 -30 -97 18 -64 64 18 27 47 27 72 0z m-432 -218 l1 -83
-41 5 c-41 6 -107 34 -138 59 -8 7 -22 27 -31 45 -20 40 -11 49 57 52 28 2 51
3 52 4 1 1 23 2 50 2 l48 0 2 -84z"/>
<path d="M1593 1911 c-5 -3 -8 -19 -8 -35 1 -24 6 -30 26 -33 34 -4 55 20 42
49 -9 20 -43 31 -60 19z"/>
<path d="M1985 1844 c-12 -13 -13 -46 0 -81 8 -22 45 -15 54 10 21 53 -19 106
-54 71z"/>
<path d="M2905 1850 c-10 -16 4 -30 26 -27 21 4 49 27 34 28 -6 0 -20 2 -32 5
-12 2 -25 -1 -28 -6z"/>
<path d="M3122 1784 c-25 -17 -21 -34 8 -34 24 0 34 15 23 35 -8 13 -11 13
-31 -1z"/>
<path d="M1713 4069 c-24 -9 -48 -46 -45 -69 5 -28 35 -90 44 -90 5 0 7 -4 3
-9 -3 -5 2 -17 11 -25 8 -9 12 -16 7 -16 -4 0 -3 -4 3 -8 6 -4 24 -31 40 -60
70 -129 116 -202 129 -203 52 -5 65 -5 65 3 0 4 7 8 16 8 8 0 13 4 9 9 -3 5
-1 12 5 16 18 11 10 53 -20 105 -16 28 -30 55 -30 60 0 6 -5 10 -12 10 -6 0
-8 3 -5 7 4 3 1 13 -5 21 -7 8 -40 62 -73 120 -64 112 -95 139 -142 121z"/>
<path d="M1158 3520 c-23 -18 -27 -32 -20 -87 1 -7 35 -31 75 -55 39 -23 75
-46 78 -51 3 -5 10 -9 15 -9 5 0 52 -25 104 -56 52 -31 98 -57 102 -57 3 0 10
-3 14 -7 14 -15 51 -8 75 13 34 29 34 82 -1 112 -14 12 -32 23 -39 25 -7 1
-36 17 -65 35 -28 19 -64 40 -81 49 -16 8 -66 36 -110 62 -88 51 -111 55 -147
26z"/>
<path d="M978 2803 c-10 -2 -18 -6 -18 -8 0 -1 -7 -18 -15 -38 -14 -34 -14
-36 13 -65 l28 -30 229 1 229 0 24 26 c18 20 22 33 18 56 -12 61 -23 64 -269
63 -122 0 -230 -2 -239 -5z"/>
</g>
</svg>
